HIERARCHY
ROOT Hips
{
	OFFSET 0.000000 0.000000 0.000000 
	CHANNELS 6 Xposition Yposition Zposition Zrotation Yrotation Xrotation
	JOINT LeftUpLeg
	{
		OFFSET 1.363060 -1.794630 0.839290 
		CHANNELS 3 Zrotation Yrotation Xrotation
		JOINT LeftLeg
		{
			OFFSET 2.448110 -6.726130 0.000000 
			CHANNELS 3 Zrotation Yrotation Xrotation
			JOINT LeftFoot
			{
				OFFSET 2.562200 -7.039590 0.000000 
				CHANNELS 3 Zrotation Yrotation Xrotation
				JOINT LeftToeBase
				{
					OFFSET 0.157640 -0.433110 2.322550 
					CHANNELS 3 Zrotation Yrotation Xrotation
					End Site
					{
						OFFSET 0.000000 0.000000 0.000000 
					}
				}
			}
		}
	}
	JOINT RightUpLeg
	{
		OFFSET -1.305520 -1.794630 0.839290 
		CHANNELS 3 Zrotation Yrotation Xrotation
		JOINT RightLeg
		{
			OFFSET -2.542530 -6.985550 0.000000 
			CHANNELS 3 Zrotation Yrotation Xrotation
			JOINT RightFoot
			{
				OFFSET -2.568260 -7.056230 0.000000 
				CHANNELS 3 Zrotation Yrotation Xrotation
				JOINT RightToeBase
				{
					OFFSET -0.164730 -0.452590 2.363150 
					CHANNELS 3 Zrotation Yrotation Xrotation
					End Site
					{
						OFFSET 0.000000 0.000000 0.000000 
					}
				}
			}
		}
	}
	JOINT Spine
	{
		OFFSET 0.028270 2.035590 -0.193380 
		CHANNELS 3 Zrotation Yrotation Xrotation
		JOINT Spine1
		{
			OFFSET 0.056720 2.048850 -0.042750 
			CHANNELS 3 Zrotation Yrotation Xrotation
			JOINT Neck1
			{
				OFFSET -0.054170 1.746240 0.172020 
				CHANNELS 3 Zrotation Yrotation Xrotation
				JOINT Head
				{
					OFFSET 0.104070 1.761360 -0.123970 
					CHANNELS 3 Zrotation Yrotation Xrotation
					End Site
					{
						OFFSET 0.000000 0.000000 0.000000 
					}
				}
			}
			JOINT LeftArm
			{
				OFFSET 3.362410 1.200890 -0.311210 
				CHANNELS 3 Zrotation Yrotation Xrotation
				JOINT LeftForeArm
				{
					OFFSET 4.983000 -0.000000 -0.000000 
					CHANNELS 3 Zrotation Yrotation Xrotation
					JOINT LeftHand
					{
						OFFSET 3.483560 -0.000000 -0.000000 
						CHANNELS 3 Zrotation Yrotation Xrotation
						JOINT LeftHandIndex1
						{
							OFFSET 0.715260 -0.000000 -0.000000 
							CHANNELS 3 Zrotation Yrotation Xrotation
							End Site
							{
								OFFSET 0.000000 0.000000 0.000000 
							}
						}
					}
				}
			}
			JOINT RightArm
			{
				OFFSET -3.136600 1.374050 -0.404650 
				CHANNELS 3 Zrotation Yrotation Xrotation
				JOINT RightForeArm
				{
					OFFSET -5.241900 -0.000000 -0.000000 
					CHANNELS 3 Zrotation Yrotation Xrotation
					JOINT RightHand
					{
						OFFSET -3.444170 -0.000000 -0.000000 
						CHANNELS 3 Zrotation Yrotation Xrotation
						JOINT RightHandIndex1
						{
							OFFSET -0.622530 -0.000000 -0.000000 
							CHANNELS 3 Zrotation Yrotation Xrotation
							End Site
							{
								OFFSET 0.000000 0.000000 0.000000 
							}
						}
					}
				}
			}
		}
	}
}
MOTION
Frames: 15
Frame Time: 0.041667
-29.958579 17.487755 0.091961 169.147231 75.664170 168.063466 -16.293562 2.786429 -4.574702 1.549844 11.422531 29.371206 -0.609256 6.076564 -11.196126 0.024500 -1.010600 -2.778100 19.227284 -2.183908 1.445609 -1.883805 -9.501412 24.299265 -0.861496 3.740865 -17.331210 -0.174300 -2.689400 7.415100 0.367222 0.770556 -0.207493 4.210155 0.054212 9.180561 5.805032 -1.479807 22.104644 1.761400 0.274700 19.047800 -82.130400 -8.715518 10.492026 2.771652 -13.921984 -0.944718 -0.271482 0.310824 16.685533 -7.125000 0.000000 0.000000 64.749174 4.941912 17.958428 -6.631083 17.945866 -2.255506 1.408674 0.522394 0.663855 7.125000 0.000000 0.000000 
-29.961532 17.495664 0.021408 169.288475 76.205252 168.299666 -16.419582 2.723673 -4.155895 1.410617 11.181038 28.596923 -0.844273 7.129062 -11.403106 0.053900 -1.498200 -4.120700 19.275443 -1.637490 1.707895 -1.823817 -9.326156 23.787429 -0.828422 3.535617 -17.039527 -0.175700 -2.699800 7.444100 0.377842 0.800754 -0.261610 4.229769 0.075452 9.130231 5.732902 -1.416389 22.178354 1.699700 0.308500 19.157100 -82.285612 -7.647864 14.785248 3.420547 -15.143525 -1.071800 -0.339578 0.266963 11.344441 -7.125000 0.000000 0.000000 64.518157 4.998765 16.619831 -6.326008 17.528869 -2.255399 1.490900 0.445345 1.260711 7.125000 0.000000 0.000000 
-29.968282 17.488388 -0.051570 170.233581 76.679693 169.196013 -16.376604 2.723661 -3.768529 1.334999 11.022827 28.132565 -0.899303 7.367682 -11.404816 0.019000 -0.890300 -2.447100 19.462738 -1.267671 1.934894 -1.787153 -9.232799 23.495377 -0.807869 3.459253 -16.841926 -0.193700 -2.834400 7.818000 0.396324 0.694094 -0.305587 4.157187 0.038491 9.035186 5.806693 -1.268877 22.253437 1.761900 0.378400 19.214000 -82.316112 -6.120635 20.560772 4.356581 -16.784442 -1.271148 -0.469761 0.275760 2.412370 -7.125000 0.000000 0.000000 64.070413 5.138359 16.164439 -6.110906 17.258032 -2.236201 1.500114 0.511134 0.991697 7.125000 0.000000 0.000000 
-29.980515 17.476049 -0.130137 171.067653 77.142973 169.952293 -16.442635 2.909436 -3.384264 1.253877 10.857061 27.641177 -0.878993 7.354909 -11.798043 0.005400 -0.475300 -1.305900 19.565743 -0.925574 2.234560 -1.746089 -9.111617 23.144145 -0.787787 3.379702 -16.638035 -0.202100 -2.894500 7.985100 0.398368 0.569849 -0.372811 4.006558 0.005446 8.805082 5.875862 -1.095281 22.322843 1.814100 0.467300 19.258300 -82.222144 -4.774846 21.182371 5.441339 -18.392326 -1.543106 -0.422834 -0.110806 4.565039 -7.125000 0.000000 0.000000 63.820226 5.161579 15.657999 -5.994753 17.102663 -2.224994 1.499224 0.550320 0.740047 7.125000 0.000000 0.000000 
-29.995596 17.468667 -0.211552 171.306917 77.548292 170.129380 -16.774435 3.035648 -3.031542 1.171229 10.721843 27.192965 -0.928855 7.729597 -12.623862 0.001600 -0.255400 -0.701600 19.486622 -0.529233 2.543690 -1.715868 -8.991773 22.837993 -0.765909 3.196480 -16.431604 -0.188300 -2.794700 7.707700 0.379054 0.445701 -0.468724 3.850930 -0.019305 8.434718 5.912195 -0.899782 22.366992 1.835000 0.567400 19.262700 -82.077334 -3.411070 23.428281 6.222375 -19.581687 -1.747590 -0.422511 -0.156269 2.948029 -7.125000 0.000000 0.000000 63.819405 4.915017 15.252462 -5.991589 17.091282 -2.228404 1.496266 0.552988 0.909548 7.125000 0.000000 0.000000 
-30.010677 17.468772 -0.293494 171.760459 77.889382 170.479559 -17.159501 2.849197 -2.585073 1.086052 10.590937 26.756284 -1.047691 8.450263 -13.659981 0.001000 0.202000 0.555100 19.487818 -0.078471 2.933933 -1.675158 -8.855461 22.480165 -0.741861 2.763523 -16.276863 -0.157300 -2.555800 7.044500 0.323505 0.299899 -0.632723 3.493821 -0.025448 7.745007 5.960042 -0.745361 22.508783 1.866100 0.673600 19.372600 -81.669614 -2.033931 26.365418 6.700694 -20.308942 -1.860698 -0.439738 0.109266 -0.762413 -7.125000 0.000000 0.000000 64.082198 4.394737 15.024096 -6.020342 17.142281 -2.240453 1.495593 0.535904 1.248733 7.125000 0.000000 0.000000 
-30.031558 17.479002 -0.379128 171.921891 78.159301 170.617859 -17.673499 2.453641 -2.142131 0.991580 10.466227 26.296618 -1.216069 9.355731 -14.526559 0.003200 0.364600 1.001900 19.414895 0.376669 3.329876 -1.628336 -8.701101 22.073409 -0.717478 2.196939 -16.175260 -0.119700 -2.230500 6.143200 0.350746 0.187563 -0.623240 3.669265 -0.097407 7.808640 5.947561 -0.617145 22.577939 1.875500 0.710700 19.433800 -81.716231 -1.689236 27.983921 6.944466 -20.688251 -1.911981 -0.460992 0.079743 -2.464761 -7.125000 0.000000 0.000000 63.852761 4.419374 15.090518 -6.176451 17.315161 -2.268373 1.494801 0.536640 1.052673 7.125000 0.000000 0.000000 
-30.060770 17.490391 -0.465077 171.502345 78.337109 170.191927 -18.307861 1.945655 -1.682932 0.887467 10.330023 25.781570 -1.361053 10.113305 -15.134018 0.021600 0.948000 2.605800 19.180989 0.894373 3.694272 -1.594189 -8.557257 21.731869 -0.692674 1.561667 -16.100848 -0.105500 -2.094400 5.766700 0.304831 0.120328 -0.635579 3.603136 -0.121722 7.719486 6.013762 -0.601295 22.572708 1.905500 0.734900 19.389400 -81.521351 -1.505589 28.940464 7.084936 -20.886521 -1.937368 -0.461675 0.038156 -2.347261 -7.125000 0.000000 0.000000 63.993079 4.312193 15.136060 -6.409321 17.598744 -2.312427 1.487370 0.516791 0.698577 7.125000 0.000000 0.000000 
-30.088295 17.496086 -0.553980 170.711457 78.614140 169.331649 -18.968434 1.512165 -1.103362 0.780225 10.178251 25.227596 -1.444204 10.642598 -15.826508 0.074300 1.758200 4.838000 18.855034 1.400082 4.022682 -1.579205 -8.452952 21.525768 -0.668614 1.015828 -16.007914 -0.098000 -2.018900 5.557800 0.237891 0.129462 -0.608823 3.502791 -0.113003 7.752509 6.091804 -0.627538 22.597972 1.954100 0.738300 19.392700 -81.258104 -1.280833 30.648818 7.013712 -20.808491 -1.896739 -0.505127 0.112879 -0.491284 -7.125000 0.000000 0.000000 64.254128 4.232396 15.186974 -6.679420 17.940598 -2.378035 1.478063 0.511344 0.043813 7.125000 0.000000 0.000000 
-30.113816 17.500516 -0.645203 169.089683 79.095390 167.640169 -19.730285 1.287768 -0.583612 0.675619 10.033865 24.675785 -1.556796 11.290465 -16.474851 0.083900 1.868300 5.141800 18.404987 2.027327 4.307014 -1.587995 -8.392397 21.478248 -0.652580 0.571218 -15.973320 -0.081400 -1.840700 5.065600 0.175796 0.212786 -0.563730 3.538458 -0.079206 7.860465 6.136828 -0.530635 22.663420 2.024300 0.757000 19.420100 -81.117062 -1.374645 31.063290 7.198651 -21.050825 -1.949518 -0.476388 0.130848 -1.279670 -7.125000 0.000000 0.000000 64.474524 3.910290 15.752453 -7.215806 18.635060 -2.520723 1.462223 0.538307 -1.173893 7.125000 0.000000 0.000000 
-30.142501 17.506527 -0.731891 167.425381 79.587806 166.059999 -20.376145 1.231768 -0.345757 0.578226 9.890207 24.133710 -1.662522 11.855045 -16.915164 0.126700 2.294400 6.320000 17.966814 2.626980 4.286060 -1.614342 -8.392470 21.576711 -0.640386 0.282376 -15.931555 -0.064000 -1.632000 4.489600 0.130747 0.315977 -0.540697 3.654848 -0.037771 7.956766 6.083459 -0.358103 22.763796 2.027300 0.799200 19.490100 -80.924805 -1.322673 32.369455 7.432099 -21.372764 -2.002929 -0.472142 0.129121 -1.783895 -7.125000 0.000000 0.000000 64.691864 3.452417 16.611440 -7.903541 19.518727 -2.715634 1.445141 0.579724 -2.621843 7.125000 0.000000 0.000000 
-30.182049 17.514858 -0.812462 166.445986 80.127864 165.312323 -20.716574 1.395377 -0.352597 0.496633 9.744352 23.629371 -1.655029 11.887991 -17.122805 0.223300 3.042100 8.396100 17.689877 3.119967 3.873131 -1.644433 -8.440903 21.738660 -0.626257 0.159760 -15.810279 -0.029900 -1.116600 3.069700 0.086196 0.440999 -0.530455 3.663744 0.022943 8.035313 5.935577 -0.216290 22.872145 1.935300 0.843800 19.651400 -80.551822 -1.376227 33.894105 7.832965 -21.894973 -2.102579 -0.462429 0.097118 -2.636002 -7.125000 0.000000 0.000000 64.975642 3.207210 17.476172 -8.506891 20.281955 -2.888710 1.428136 0.614005 -4.106990 7.125000 0.000000 0.000000 
-30.235517 17.524244 -0.893244 165.474234 80.937223 164.623131 -20.953978 1.658650 -0.524514 0.432031 9.632546 23.229947 -1.625143 11.837419 -17.376552 0.137000 2.385400 6.572000 17.502659 3.732689 3.217680 -1.674880 -8.500603 21.889544 -0.601373 0.163221 -15.496907 -0.005300 -0.471000 1.294100 0.003844 0.697038 -0.514940 3.436313 0.167631 8.062013 5.878419 -0.078290 22.904313 1.914300 0.886400 19.810900 -80.121364 -2.090430 34.483563 7.747704 -21.711095 -2.059236 -0.446764 0.097706 -2.975628 -7.125000 0.000000 0.000000 65.385011 3.190979 18.246863 -9.068112 20.975742 -3.039876 1.406219 0.632356 -5.501798 7.125000 0.000000 0.000000 
-30.293836 17.533314 -0.981830 164.131225 82.068816 163.562998 -21.287507 1.689015 -0.716119 0.375104 9.567332 22.946582 -1.707543 12.382143 -18.116915 0.353000 3.817300 10.563300 17.308593 4.419668 2.405814 -1.707375 -8.550968 21.997011 -0.563898 0.466953 -14.863515 -0.000600 -0.160800 0.441700 -0.038404 1.010222 -0.523207 3.337904 0.341752 7.980418 5.809851 0.218963 22.926251 1.914100 0.968400 19.901100 -80.017887 -3.222826 33.989864 7.098031 -20.760984 -1.860679 -0.427112 0.148414 -2.502160 -7.125000 0.000000 0.000000 65.591184 3.010299 19.471023 -9.758017 21.822323 -3.238510 1.387532 0.667844 -7.105313 7.125000 0.000000 0.000000 
-30.350890 17.536266 -1.069151 161.562081 83.219703 161.136878 -21.819709 1.533680 -0.730829 0.321382 9.529282 22.722657 -1.848175 13.225329 -19.018731 0.411000 4.115300 11.401300 16.939593 4.945620 1.687375 -1.746412 -8.580949 22.092094 -0.525497 1.010624 -14.097343 -0.000800 -0.178900 0.491600 -0.082911 1.330786 -0.554543 3.304054 0.528095 7.744262 5.691210 0.510563 22.990128 1.865100 1.059400 19.938700 -79.864619 -3.745520 33.843670 6.868486 -20.410330 -1.795259 -0.415827 0.184790 -2.390286 -7.125000 0.000000 0.000000 65.790756 2.552148 20.872641 -10.530255 22.769924 -3.485918 1.377471 0.705988 -8.638101 7.125000 0.000000 0.000000 
